<?xml version="1.0" encoding="UTF-8" standalone="no"?><svg xmlns="http://www.w3.org/2000/svg" xmlns:xlink="http://www.w3.org/1999/xlink" contentScriptType="application/ecmascript" contentStyleType="text/css" height="938px" preserveAspectRatio="none" style="width:1060px;height:938px;" version="1.1" viewBox="0 0 1060 938" width="1060px" zoomAndPan="magnify"><defs/><g><!--class namer--><rect fill="#F6F8FA" height="52.9551" id="namer" style="stroke: #005CC5; stroke-width: 0.5;" width="99" x="558.5" y="762"/><ellipse cx="587" cy="778" fill="#B4A7E5" rx="11" ry="11" style="stroke: #005CC5; stroke-width: 1.0;"/><path d="M583.4277,774.2651 L583.4277,772.1069 L590.8071,772.1069 L590.8071,774.2651 L588.3418,774.2651 L588.3418,782.3418 L590.8071,782.3418 L590.8071,784.5 L583.4277,784.5 L583.4277,782.3418 L585.8931,782.3418 L585.8931,774.2651 Z "/><text fill="#000000" font-family="SFMono-Regular,Consolas,Liberation Mono,Menlo,Courier,monospace" font-size="12" font-style="italic" lengthAdjust="spacingAndGlyphs" textLength="37" x="604" y="782.5352">namer</text><line style="stroke: #005CC5; stroke-width: 0.5;" x1="559.5" x2="656.5" y1="794" y2="794"/><ellipse cx="569.5" cy="805.9775" fill="#84BE84" rx="3" ry="3" style="stroke: #038048; stroke-width: 1.0;"/><text fill="#000000" font-family="SFMono-Regular,Consolas,Liberation Mono,Menlo,Courier,monospace" font-size="11" lengthAdjust="spacingAndGlyphs" textLength="73" x="578.5" y="808.6348">Name() string</text><!--class noder--><rect fill="#F6F8FA" height="52.9551" id="noder" style="stroke: #005CC5; stroke-width: 0.5;" width="116" x="623" y="875"/><ellipse cx="660.5" cy="891" fill="#B4A7E5" rx="11" ry="11" style="stroke: #005CC5; stroke-width: 1.0;"/><path d="M656.9277,887.2651 L656.9277,885.1069 L664.3071,885.1069 L664.3071,887.2651 L661.8418,887.2651 L661.8418,895.3418 L664.3071,895.3418 L664.3071,897.5 L656.9277,897.5 L656.9277,895.3418 L659.3931,895.3418 L659.3931,887.2651 Z "/><text fill="#000000" font-family="SFMono-Regular,Consolas,Liberation Mono,Menlo,Courier,monospace" font-size="12" font-style="italic" lengthAdjust="spacingAndGlyphs" textLength="34" x="679.5" y="895.5352">noder</text><line style="stroke: #005CC5; stroke-width: 0.5;" x1="624" x2="738" y1="907" y2="907"/><ellipse cx="634" cy="918.9775" fill="#84BE84" rx="3" ry="3" style="stroke: #038048; stroke-width: 1.0;"/><text fill="#000000" font-family="SFMono-Regular,Consolas,Liberation Mono,Menlo,Courier,monospace" font-size="11" lengthAdjust="spacingAndGlyphs" textLength="90" x="643" y="921.6348">Node() dag.Node</text><!--class Attacher--><rect fill="#F6F8FA" height="52.9551" id="Attacher" style="stroke: #005CC5; stroke-width: 0.5;" width="156" x="391" y="612.5"/><ellipse cx="440.75" cy="628.5" fill="#B4A7E5" rx="11" ry="11" style="stroke: #005CC5; stroke-width: 1.0;"/><path d="M437.1777,624.7651 L437.1777,622.6069 L444.5571,622.6069 L444.5571,624.7651 L442.0918,624.7651 L442.0918,632.8418 L444.5571,632.8418 L444.5571,635 L437.1777,635 L437.1777,632.8418 L439.6431,632.8418 L439.6431,624.7651 Z "/><text fill="#000000" font-family="SFMono-Regular,Consolas,Liberation Mono,Menlo,Courier,monospace" font-size="12" font-style="italic" lengthAdjust="spacingAndGlyphs" textLength="48" x="461.25" y="633.0352">Attacher</text><line style="stroke: #005CC5; stroke-width: 0.5;" x1="392" x2="546" y1="644.5" y2="644.5"/><ellipse cx="402" cy="656.4775" fill="#84BE84" rx="3" ry="3" style="stroke: #038048; stroke-width: 1.0;"/><text fill="#000000" font-family="SFMono-Regular,Consolas,Liberation Mono,Menlo,Courier,monospace" font-size="11" lengthAdjust="spacingAndGlyphs" textLength="130" x="411" y="659.1348">Then(Attacher) Attacher</text><!--class Joint--><rect fill="#F6F8FA" height="32" id="Joint" style="stroke: #005CC5; stroke-width: 0.5;" width="57" x="453.5" y="772.5"/><ellipse cx="468.5" cy="788.5" fill="#B4A7E5" rx="11" ry="11" style="stroke: #005CC5; stroke-width: 1.0;"/><path d="M464.9277,784.7651 L464.9277,782.6069 L472.3071,782.6069 L472.3071,784.7651 L469.8418,784.7651 L469.8418,792.8418 L472.3071,792.8418 L472.3071,795 L464.9277,795 L464.9277,792.8418 L467.3931,792.8418 L467.3931,784.7651 Z "/><text fill="#000000" font-family="SFMono-Regular,Consolas,Liberation Mono,Menlo,Courier,monospace" font-size="12" font-style="italic" lengthAdjust="spacingAndGlyphs" textLength="25" x="482.5" y="793.0352">Joint</text><!--class Resulter--><rect fill="#F6F8FA" height="52.9551" id="Resulter" style="stroke: #005CC5; stroke-width: 0.5;" width="103" x="582.5" y="612.5"/><ellipse cx="608.3" cy="628.5" fill="#B4A7E5" rx="11" ry="11" style="stroke: #005CC5; stroke-width: 1.0;"/><path d="M604.7277,624.7651 L604.7277,622.6069 L612.1071,622.6069 L612.1071,624.7651 L609.6418,624.7651 L609.6418,632.8418 L612.1071,632.8418 L612.1071,635 L604.7277,635 L604.7277,632.8418 L607.1931,632.8418 L607.1931,624.7651 Z "/><text fill="#000000" font-family="SFMono-Regular,Consolas,Liberation Mono,Menlo,Courier,monospace" font-size="12" font-style="italic" lengthAdjust="spacingAndGlyphs" textLength="47" x="624.7" y="633.0352">Resulter</text><line style="stroke: #005CC5; stroke-width: 0.5;" x1="583.5" x2="684.5" y1="644.5" y2="644.5"/><ellipse cx="593.5" cy="656.4775" fill="#84BE84" rx="3" ry="3" style="stroke: #038048; stroke-width: 1.0;"/><text fill="#000000" font-family="SFMono-Regular,Consolas,Liberation Mono,Menlo,Courier,monospace" font-size="11" lengthAdjust="spacingAndGlyphs" textLength="77" x="602.5" y="659.1348">Result() Result</text><!--class Executor--><rect fill="#F6F8FA" height="52.9551" id="Executor" style="stroke: #005CC5; stroke-width: 0.5;" width="262" x="667" y="115.5"/><ellipse cx="768.75" cy="131.5" fill="#B4A7E5" rx="11" ry="11" style="stroke: #005CC5; stroke-width: 1.0;"/><path d="M765.1777,127.7651 L765.1777,125.6069 L772.5571,125.6069 L772.5571,127.7651 L770.0918,127.7651 L770.0918,135.8418 L772.5571,135.8418 L772.5571,138 L765.1777,138 L765.1777,135.8418 L767.6431,135.8418 L767.6431,127.7651 Z "/><text fill="#000000" font-family="SFMono-Regular,Consolas,Liberation Mono,Menlo,Courier,monospace" font-size="12" font-style="italic" lengthAdjust="spacingAndGlyphs" textLength="50" x="789.25" y="136.0352">Executor</text><line style="stroke: #005CC5; stroke-width: 0.5;" x1="668" x2="928" y1="147.5" y2="147.5"/><ellipse cx="678" cy="159.4775" fill="#84BE84" rx="3" ry="3" style="stroke: #038048; stroke-width: 1.0;"/><text fill="#000000" font-family="SFMono-Regular,Consolas,Liberation Mono,Menlo,Courier,monospace" font-size="11" lengthAdjust="spacingAndGlyphs" textLength="236" x="687" y="162.1348">Exec(context.Context) (&lt;-chan Piece, error)</text><!--class task--><rect fill="#F6F8FA" height="52.9551" id="task" style="stroke: #005CC5; stroke-width: 0.5;" width="118" x="410" y="463"/><ellipse cx="452.9" cy="479" fill="#DA70D6" rx="11" ry="11" style="stroke: #005CC5; stroke-width: 1.0;"/><path d="M452.1334,480.063 Q450.2823,479.3574 449.6266,478.5813 Q448.9708,477.8052 448.9708,476.4937 Q448.9708,474.8086 450.0499,473.8457 Q451.129,472.8828 453.0133,472.8828 Q453.8683,472.8828 454.7232,473.0779 Q455.5782,473.2729 456.4166,473.6548 L456.4166,476.0454 Q455.628,475.4893 454.8146,475.1987 Q454.0011,474.9082 453.2042,474.9082 Q452.316,474.9082 451.8429,475.2651 Q451.3697,475.6221 451.3697,476.2861 Q451.3697,476.8008 451.7142,477.137 Q452.0587,477.4731 453.1544,477.8799 L454.2086,478.2783 Q455.7027,478.8262 456.4083,479.731 Q457.1139,480.6357 457.1139,482.0137 Q457.1139,483.8896 456.0057,484.8152 Q454.8976,485.7407 452.6563,485.7407 Q451.735,485.7407 450.8094,485.5208 Q449.8839,485.3008 449.0206,484.8691 L449.0206,482.3374 Q450.0001,483.0347 450.9173,483.375 Q451.8346,483.7153 452.7311,483.7153 Q453.6358,483.7153 454.1339,483.3044 Q454.6319,482.8936 454.6319,482.1548 Q454.6319,481.5986 454.2999,481.1794 Q453.9679,480.7603 453.337,480.5195 Z "/><text fill="#000000" font-family="SFMono-Regular,Consolas,Liberation Mono,Menlo,Courier,monospace" font-size="12" lengthAdjust="spacingAndGlyphs" textLength="24" x="473.1" y="483.5352">task</text><line style="stroke: #005CC5; stroke-width: 0.5;" x1="411" x2="527" y1="495" y2="495"/><polygon fill="none" points="421,502.9775,417,508.9775,425,508.9775" style="stroke: #1963A0; stroke-width: 1.0;"/><text fill="#000000" font-family="SFMono-Regular,Consolas,Liberation Mono,Menlo,Courier,monospace" font-size="11" lengthAdjust="spacingAndGlyphs" textLength="92" x="430" y="509.6348">anchor dag.Node</text><!--class GroupTask--><rect fill="#F6F8FA" height="164.5957" id="GroupTask" style="stroke: #005CC5; stroke-width: 0.5;" width="290" x="6" y="238"/><ellipse cx="114.75" cy="254" fill="#DA70D6" rx="11" ry="11" style="stroke: #005CC5; stroke-width: 1.0;"/><path d="M113.9834,255.063 Q112.1323,254.3574 111.4766,253.5813 Q110.8208,252.8052 110.8208,251.4937 Q110.8208,249.8086 111.8999,248.8457 Q112.979,247.8828 114.8633,247.8828 Q115.7183,247.8828 116.5732,248.0779 Q117.4282,248.2729 118.2666,248.6548 L118.2666,251.0454 Q117.478,250.4893 116.6646,250.1987 Q115.8511,249.9082 115.0542,249.9082 Q114.166,249.9082 113.6929,250.2651 Q113.2197,250.6221 113.2197,251.2861 Q113.2197,251.8008 113.5642,252.137 Q113.9087,252.4731 115.0044,252.8799 L116.0586,253.2783 Q117.5527,253.8262 118.2583,254.731 Q118.9639,255.6357 118.9639,257.0137 Q118.9639,258.8896 117.8557,259.8152 Q116.7476,260.7407 114.5063,260.7407 Q113.585,260.7407 112.6594,260.5208 Q111.7339,260.3008 110.8706,259.8691 L110.8706,257.3374 Q111.8501,258.0347 112.7673,258.375 Q113.6846,258.7153 114.5811,258.7153 Q115.4858,258.7153 115.9839,258.3044 Q116.4819,257.8936 116.4819,257.1548 Q116.4819,256.5986 116.1499,256.1794 Q115.8179,255.7603 115.187,255.5195 Z "/><text fill="#000000" font-family="SFMono-Regular,Consolas,Liberation Mono,Menlo,Courier,monospace" font-size="12" lengthAdjust="spacingAndGlyphs" textLength="64" x="135.25" y="258.5352">GroupTask</text><line style="stroke: #005CC5; stroke-width: 1.5;" x1="7" x2="295" y1="270" y2="270"/><polygon fill="none" points="17,277.9775,13,283.9775,21,283.9775" style="stroke: #1963A0; stroke-width: 1.0;"/><text fill="#000000" font-family="SFMono-Regular,Consolas,Liberation Mono,Menlo,Courier,monospace" font-size="11" lengthAdjust="spacingAndGlyphs" textLength="79" x="26" y="284.6348">beginning task</text><polygon fill="none" points="17,290.9326,13,296.9326,21,296.9326" style="stroke: #1963A0; stroke-width: 1.0;"/><text fill="#000000" font-family="SFMono-Regular,Consolas,Liberation Mono,Menlo,Courier,monospace" font-size="11" lengthAdjust="spacingAndGlyphs" textLength="45" x="26" y="297.5898">end task</text><ellipse cx="17" cy="324.8428" fill="#84BE84" rx="3" ry="3" style="stroke: #038048; stroke-width: 1.0;"/><text fill="#000000" font-family="SFMono-Regular,Consolas,Liberation Mono,Menlo,Courier,monospace" font-size="11" lengthAdjust="spacingAndGlyphs" textLength="104" x="26" y="327.5">Group() GroupTask</text><ellipse cx="17" cy="337.7979" fill="#84BE84" rx="3" ry="3" style="stroke: #038048; stroke-width: 1.0;"/><text fill="#000000" font-family="SFMono-Regular,Consolas,Liberation Mono,Menlo,Courier,monospace" font-size="11" lengthAdjust="spacingAndGlyphs" textLength="264" x="26" y="340.4551">ForEach(string, func(string) Attacher) GroupTask</text><line style="stroke: #005CC5; stroke-width: 1.0;" x1="7" x2="116" y1="310.3877" y2="310.3877"/><text fill="#000000" font-family="SFMono-Regular,Consolas,Liberation Mono,Menlo,Courier,monospace" font-size="11" lengthAdjust="spacingAndGlyphs" textLength="70" x="116" y="314.0449">constructors</text><line style="stroke: #005CC5; stroke-width: 1.0;" x1="186" x2="295" y1="310.3877" y2="310.3877"/><ellipse cx="17" cy="367.708" fill="#84BE84" rx="3" ry="3" style="stroke: #038048; stroke-width: 1.0;"/><text fill="#000000" font-family="SFMono-Regular,Consolas,Liberation Mono,Menlo,Courier,monospace" font-size="11" lengthAdjust="spacingAndGlyphs" textLength="111" x="26" y="370.3652">Iter() (Iterator, error)</text><ellipse cx="17" cy="380.6631" fill="#84BE84" rx="3" ry="3" style="stroke: #038048; stroke-width: 1.0;"/><text fill="#000000" font-family="SFMono-Regular,Consolas,Liberation Mono,Menlo,Courier,monospace" font-size="11" lengthAdjust="spacingAndGlyphs" textLength="110" x="26" y="383.3203">Beginning() Attacher</text><ellipse cx="17" cy="393.6182" fill="#84BE84" rx="3" ry="3" style="stroke: #038048; stroke-width: 1.0;"/><text fill="#000000" font-family="SFMono-Regular,Consolas,Liberation Mono,Menlo,Courier,monospace" font-size="11" lengthAdjust="spacingAndGlyphs" textLength="77" x="26" y="396.2754">End() Attacher</text><line style="stroke: #005CC5; stroke-width: 1.0;" x1="7" x2="127.5" y1="353.2529" y2="353.2529"/><text fill="#000000" font-family="SFMono-Regular,Consolas,Liberation Mono,Menlo,Courier,monospace" font-size="11" lengthAdjust="spacingAndGlyphs" textLength="47" x="127.5" y="356.9102">methods</text><line style="stroke: #005CC5; stroke-width: 1.0;" x1="174.5" x2="295" y1="353.2529" y2="353.2529"/><!--class FnTask--><rect fill="#F6F8FA" height="138.6855" id="FnTask" style="stroke: #005CC5; stroke-width: 0.5;" width="225" x="331.5" y="251"/><ellipse cx="419.25" cy="267" fill="#DA70D6" rx="11" ry="11" style="stroke: #005CC5; stroke-width: 1.0;"/><path d="M418.4834,268.063 Q416.6323,267.3574 415.9766,266.5813 Q415.3208,265.8052 415.3208,264.4937 Q415.3208,262.8086 416.3999,261.8457 Q417.479,260.8828 419.3633,260.8828 Q420.2183,260.8828 421.0732,261.0779 Q421.9282,261.2729 422.7666,261.6548 L422.7666,264.0454 Q421.978,263.4893 421.1646,263.1987 Q420.3511,262.9082 419.5542,262.9082 Q418.666,262.9082 418.1929,263.2651 Q417.7197,263.6221 417.7197,264.2861 Q417.7197,264.8008 418.0642,265.137 Q418.4087,265.4731 419.5044,265.8799 L420.5586,266.2783 Q422.0527,266.8262 422.7583,267.731 Q423.4639,268.6357 423.4639,270.0137 Q423.4639,271.8896 422.3557,272.8152 Q421.2476,273.7407 419.0063,273.7407 Q418.085,273.7407 417.1594,273.5208 Q416.2339,273.3008 415.3706,272.8691 L415.3706,270.3374 Q416.3501,271.0347 417.2673,271.375 Q418.1846,271.7153 419.0811,271.7153 Q419.9858,271.7153 420.4839,271.3044 Q420.9819,270.8936 420.9819,270.1548 Q420.9819,269.5986 420.6499,269.1794 Q420.3179,268.7603 419.687,268.5195 Z "/><text fill="#000000" font-family="SFMono-Regular,Consolas,Liberation Mono,Menlo,Courier,monospace" font-size="12" lengthAdjust="spacingAndGlyphs" textLength="41" x="439.75" y="271.5352">FnTask</text><line style="stroke: #005CC5; stroke-width: 1.5;" x1="332.5" x2="555.5" y1="283" y2="283"/><polygon fill="none" points="342.5,307.9326,338.5,313.9326,346.5,313.9326" style="stroke: #1963A0; stroke-width: 1.0;"/><text fill="#000000" font-family="SFMono-Regular,Consolas,Liberation Mono,Menlo,Courier,monospace" font-size="11" lengthAdjust="spacingAndGlyphs" textLength="22" x="351.5" y="314.5898">task</text><line style="stroke: #005CC5; stroke-width: 1.0;" x1="332.5" x2="416" y1="297.4775" y2="297.4775"/><text fill="#000000" font-family="SFMono-Regular,Consolas,Liberation Mono,Menlo,Courier,monospace" font-size="11" lengthAdjust="spacingAndGlyphs" textLength="56" x="416" y="301.1348">embedded</text><line style="stroke: #005CC5; stroke-width: 1.0;" x1="472" x2="555.5" y1="297.4775" y2="297.4775"/><ellipse cx="342.5" cy="341.8428" fill="#84BE84" rx="3" ry="3" style="stroke: #038048; stroke-width: 1.0;"/><text fill="#000000" font-family="SFMono-Regular,Consolas,Liberation Mono,Menlo,Courier,monospace" font-size="11" lengthAdjust="spacingAndGlyphs" textLength="155" x="351.5" y="344.5">Fn(string, FnClosure) FnTask</text><ellipse cx="342.5" cy="354.7979" fill="#84BE84" rx="3" ry="3" style="stroke: #038048; stroke-width: 1.0;"/><text fill="#000000" font-family="SFMono-Regular,Consolas,Liberation Mono,Menlo,Courier,monospace" font-size="11" lengthAdjust="spacingAndGlyphs" textLength="199" x="351.5" y="357.4551">Transform(string, FnClosure) FnTask</text><ellipse cx="342.5" cy="367.7529" fill="#84BE84" rx="3" ry="3" style="stroke: #038048; stroke-width: 1.0;"/><text fill="#000000" font-family="SFMono-Regular,Consolas,Liberation Mono,Menlo,Courier,monospace" font-size="11" lengthAdjust="spacingAndGlyphs" textLength="145" x="351.5" y="370.4102">Without(interface{}) FnTask</text><ellipse cx="342.5" cy="380.708" fill="#84BE84" rx="3" ry="3" style="stroke: #038048; stroke-width: 1.0;"/><text fill="#000000" font-family="SFMono-Regular,Consolas,Liberation Mono,Menlo,Courier,monospace" font-size="11" lengthAdjust="spacingAndGlyphs" textLength="180" x="351.5" y="383.3652">UnmarshalFile(interface{}) FnTask</text><line style="stroke: #005CC5; stroke-width: 1.0;" x1="332.5" x2="409" y1="327.3877" y2="327.3877"/><text fill="#000000" font-family="SFMono-Regular,Consolas,Liberation Mono,Menlo,Courier,monospace" font-size="11" lengthAdjust="spacingAndGlyphs" textLength="70" x="409" y="331.0449">constructors</text><line style="stroke: #005CC5; stroke-width: 1.0;" x1="479" x2="555.5" y1="327.3877" y2="327.3877"/><!--class CmdTask--><rect fill="#F6F8FA" height="151.6406" id="CmdTask" style="stroke: #005CC5; stroke-width: 0.5;" width="203" x="591.5" y="244.5"/><ellipse cx="661.25" cy="260.5" fill="#DA70D6" rx="11" ry="11" style="stroke: #005CC5; stroke-width: 1.0;"/><path d="M660.4834,261.563 Q658.6323,260.8574 657.9766,260.0813 Q657.3208,259.3052 657.3208,257.9937 Q657.3208,256.3086 658.3999,255.3457 Q659.479,254.3828 661.3633,254.3828 Q662.2183,254.3828 663.0732,254.5779 Q663.9282,254.7729 664.7666,255.1548 L664.7666,257.5454 Q663.978,256.9893 663.1646,256.6987 Q662.3511,256.4082 661.5542,256.4082 Q660.666,256.4082 660.1929,256.7651 Q659.7197,257.1221 659.7197,257.7861 Q659.7197,258.3008 660.0642,258.637 Q660.4087,258.9731 661.5044,259.3799 L662.5586,259.7783 Q664.0527,260.3262 664.7583,261.231 Q665.4639,262.1357 665.4639,263.5137 Q665.4639,265.3896 664.3557,266.3152 Q663.2476,267.2407 661.0063,267.2407 Q660.085,267.2407 659.1594,267.0208 Q658.2339,266.8008 657.3706,266.3691 L657.3706,263.8374 Q658.3501,264.5347 659.2673,264.875 Q660.1846,265.2153 661.0811,265.2153 Q661.9858,265.2153 662.4839,264.8044 Q662.9819,264.3936 662.9819,263.6548 Q662.9819,263.0986 662.6499,262.6794 Q662.3179,262.2603 661.687,262.0195 Z "/><text fill="#000000" font-family="SFMono-Regular,Consolas,Liberation Mono,Menlo,Courier,monospace" font-size="12" lengthAdjust="spacingAndGlyphs" textLength="55" x="681.75" y="265.0352">CmdTask</text><line style="stroke: #005CC5; stroke-width: 1.5;" x1="592.5" x2="793.5" y1="276.5" y2="276.5"/><polygon fill="none" points="602.5,301.4326,598.5,307.4326,606.5,307.4326" style="stroke: #1963A0; stroke-width: 1.0;"/><text fill="#000000" font-family="SFMono-Regular,Consolas,Liberation Mono,Menlo,Courier,monospace" font-size="11" lengthAdjust="spacingAndGlyphs" textLength="22" x="611.5" y="308.0898">task</text><line style="stroke: #005CC5; stroke-width: 1.0;" x1="592.5" x2="665" y1="290.9775" y2="290.9775"/><text fill="#000000" font-family="SFMono-Regular,Consolas,Liberation Mono,Menlo,Courier,monospace" font-size="11" lengthAdjust="spacingAndGlyphs" textLength="56" x="665" y="294.6348">embedded</text><line style="stroke: #005CC5; stroke-width: 1.0;" x1="721" x2="793.5" y1="290.9775" y2="290.9775"/><ellipse cx="602.5" cy="335.3428" fill="#84BE84" rx="3" ry="3" style="stroke: #038048; stroke-width: 1.0;"/><text fill="#000000" font-family="SFMono-Regular,Consolas,Liberation Mono,Menlo,Courier,monospace" font-size="11" lengthAdjust="spacingAndGlyphs" textLength="165" x="611.5" y="338">Cmd(string, ...string) CmdTask</text><ellipse cx="602.5" cy="348.2979" fill="#84BE84" rx="3" ry="3" style="stroke: #038048; stroke-width: 1.0;"/><text fill="#000000" font-family="SFMono-Regular,Consolas,Liberation Mono,Menlo,Courier,monospace" font-size="11" lengthAdjust="spacingAndGlyphs" textLength="165" x="611.5" y="350.9551">Dir(CmdTask, string) CmdTask</text><ellipse cx="602.5" cy="361.2529" fill="#84BE84" rx="3" ry="3" style="stroke: #038048; stroke-width: 1.0;"/><text fill="#000000" font-family="SFMono-Regular,Consolas,Liberation Mono,Menlo,Courier,monospace" font-size="11" lengthAdjust="spacingAndGlyphs" textLength="177" x="611.5" y="363.9102">Env(CmdTask, ...string) CmdTask</text><ellipse cx="602.5" cy="374.208" fill="#84BE84" rx="3" ry="3" style="stroke: #038048; stroke-width: 1.0;"/><text fill="#000000" font-family="SFMono-Regular,Consolas,Liberation Mono,Menlo,Courier,monospace" font-size="11" lengthAdjust="spacingAndGlyphs" textLength="136" x="611.5" y="376.8652">MakeDir(string) CmdTask</text><ellipse cx="602.5" cy="387.1631" fill="#84BE84" rx="3" ry="3" style="stroke: #038048; stroke-width: 1.0;"/><text fill="#000000" font-family="SFMono-Regular,Consolas,Liberation Mono,Menlo,Courier,monospace" font-size="11" lengthAdjust="spacingAndGlyphs" textLength="151" x="611.5" y="389.8203">RemoveDir(string) CmdTask</text><line style="stroke: #005CC5; stroke-width: 1.0;" x1="592.5" x2="658" y1="320.8877" y2="320.8877"/><text fill="#000000" font-family="SFMono-Regular,Consolas,Liberation Mono,Menlo,Courier,monospace" font-size="11" lengthAdjust="spacingAndGlyphs" textLength="70" x="658" y="324.5449">constructors</text><line style="stroke: #005CC5; stroke-width: 1.0;" x1="728" x2="793.5" y1="320.8877" y2="320.8877"/><!--class Result--><rect fill="#F6F8FA" height="125.7305" id="Result" style="stroke: #005CC5; stroke-width: 0.5;" width="121" x="720.5" y="576"/><ellipse cx="759.8" cy="592" fill="#DA70D6" rx="11" ry="11" style="stroke: #005CC5; stroke-width: 1.0;"/><path d="M759.0334,593.063 Q757.1823,592.3574 756.5266,591.5813 Q755.8708,590.8052 755.8708,589.4937 Q755.8708,587.8086 756.9499,586.8457 Q758.029,585.8828 759.9133,585.8828 Q760.7683,585.8828 761.6232,586.0779 Q762.4782,586.2729 763.3166,586.6548 L763.3166,589.0454 Q762.528,588.4893 761.7146,588.1987 Q760.9011,587.9082 760.1042,587.9082 Q759.216,587.9082 758.7429,588.2651 Q758.2697,588.6221 758.2697,589.2861 Q758.2697,589.8008 758.6142,590.137 Q758.9587,590.4731 760.0544,590.8799 L761.1086,591.2783 Q762.6027,591.8262 763.3083,592.731 Q764.0139,593.6357 764.0139,595.0137 Q764.0139,596.8896 762.9057,597.8152 Q761.7976,598.7407 759.5563,598.7407 Q758.635,598.7407 757.7094,598.5208 Q756.7839,598.3008 755.9206,597.8691 L755.9206,595.3374 Q756.9001,596.0347 757.8173,596.375 Q758.7346,596.7153 759.6311,596.7153 Q760.5358,596.7153 761.0339,596.3044 Q761.5319,595.8936 761.5319,595.1548 Q761.5319,594.5986 761.1999,594.1794 Q760.8679,593.7603 760.237,593.5195 Z "/><text fill="#000000" font-family="SFMono-Regular,Consolas,Liberation Mono,Menlo,Courier,monospace" font-size="12" lengthAdjust="spacingAndGlyphs" textLength="35" x="779.2" y="596.5352">Result</text><line style="stroke: #005CC5; stroke-width: 0.5;" x1="721.5" x2="840.5" y1="608" y2="608"/><polygon fill="none" points="731.5,615.9775,727.5,621.9775,735.5,621.9775" style="stroke: #1963A0; stroke-width: 1.0;"/><text fill="#000000" font-family="SFMono-Regular,Consolas,Liberation Mono,Menlo,Courier,monospace" font-size="11" lengthAdjust="spacingAndGlyphs" textLength="87" x="740.5" y="622.6348">taskName string</text><polygon fill="none" points="731.5,628.9326,727.5,634.9326,735.5,634.9326" style="stroke: #1963A0; stroke-width: 1.0;"/><text fill="#000000" font-family="SFMono-Regular,Consolas,Liberation Mono,Menlo,Courier,monospace" font-size="11" lengthAdjust="spacingAndGlyphs" textLength="68" x="740.5" y="635.5898">key      string</text><polygon fill="none" points="731.5,641.8877,727.5,647.8877,735.5,647.8877" style="stroke: #1963A0; stroke-width: 1.0;"/><text fill="#000000" font-family="SFMono-Regular,Consolas,Liberation Mono,Menlo,Courier,monospace" font-size="11" lengthAdjust="spacingAndGlyphs" textLength="62" x="740.5" y="648.5449">err      error</text><polygon fill="none" points="731.5,654.8428,727.5,660.8428,735.5,660.8428" style="stroke: #1963A0; stroke-width: 1.0;"/><text fill="#000000" font-family="SFMono-Regular,Consolas,Liberation Mono,Menlo,Courier,monospace" font-size="11" lengthAdjust="spacingAndGlyphs" textLength="95" x="740.5" y="661.5">value    interface{}</text><line style="stroke: #005CC5; stroke-width: 0.5;" x1="721.5" x2="840.5" y1="667.8203" y2="667.8203"/><ellipse cx="731.5" cy="679.7979" fill="#84BE84" rx="3" ry="3" style="stroke: #038048; stroke-width: 1.0;"/><text fill="#000000" font-family="SFMono-Regular,Consolas,Liberation Mono,Menlo,Courier,monospace" font-size="11" lengthAdjust="spacingAndGlyphs" textLength="55" x="740.5" y="682.4551">Err() error</text><ellipse cx="731.5" cy="692.7529" fill="#84BE84" rx="3" ry="3" style="stroke: #038048; stroke-width: 1.0;"/><text fill="#000000" font-family="SFMono-Regular,Consolas,Liberation Mono,Menlo,Courier,monospace" font-size="11" lengthAdjust="spacingAndGlyphs" textLength="95" x="740.5" y="695.4102">Value() interface{}</text><!--class Piece--><rect fill="#F6F8FA" height="65.9102" id="Piece" style="stroke: #005CC5; stroke-width: 0.5;" width="85" x="964.5" y="109"/><ellipse cx="989.85" cy="125" fill="#DA70D6" rx="11" ry="11" style="stroke: #005CC5; stroke-width: 1.0;"/><path d="M989.0834,126.063 Q987.2323,125.3574 986.5766,124.5813 Q985.9208,123.8052 985.9208,122.4937 Q985.9208,120.8086 986.9999,119.8457 Q988.079,118.8828 989.9633,118.8828 Q990.8183,118.8828 991.6732,119.0779 Q992.5282,119.2729 993.3666,119.6548 L993.3666,122.0454 Q992.578,121.4893 991.7646,121.1987 Q990.9511,120.9082 990.1542,120.9082 Q989.266,120.9082 988.7929,121.2651 Q988.3197,121.6221 988.3197,122.2861 Q988.3197,122.8008 988.6642,123.137 Q989.0087,123.4731 990.1044,123.8799 L991.1586,124.2783 Q992.6527,124.8262 993.3583,125.731 Q994.0639,126.6357 994.0639,128.0137 Q994.0639,129.8896 992.9557,130.8152 Q991.8476,131.7407 989.6063,131.7407 Q988.685,131.7407 987.7594,131.5208 Q986.8339,131.3008 985.9706,130.8691 L985.9706,128.3374 Q986.9501,129.0347 987.8673,129.375 Q988.7846,129.7153 989.6811,129.7153 Q990.5858,129.7153 991.0839,129.3044 Q991.5819,128.8936 991.5819,128.1548 Q991.5819,127.5986 991.2499,127.1794 Q990.9179,126.7603 990.287,126.5195 Z "/><text fill="#000000" font-family="SFMono-Regular,Consolas,Liberation Mono,Menlo,Courier,monospace" font-size="12" lengthAdjust="spacingAndGlyphs" textLength="30" x="1006.15" y="129.5352">Piece</text><line style="stroke: #005CC5; stroke-width: 0.5;" x1="965.5" x2="1048.5" y1="141" y2="141"/><ellipse cx="975.5" cy="152.9775" fill="none" rx="3" ry="3" style="stroke: #038048; stroke-width: 1.0;"/><text fill="#000000" font-family="SFMono-Regular,Consolas,Liberation Mono,Menlo,Courier,monospace" font-size="11" lengthAdjust="spacingAndGlyphs" textLength="59" x="984.5" y="155.6348">Text string</text><ellipse cx="975.5" cy="165.9326" fill="none" rx="3" ry="3" style="stroke: #038048; stroke-width: 1.0;"/><text fill="#000000" font-family="SFMono-Regular,Consolas,Liberation Mono,Menlo,Courier,monospace" font-size="11" lengthAdjust="spacingAndGlyphs" textLength="50" x="984.5" y="168.5898">Err  error</text><!--class Iterator--><rect fill="#F6F8FA" height="52.9551" id="Iterator" style="stroke: #005CC5; stroke-width: 0.5;" width="124" x="182" y="463"/><ellipse cx="219.5" cy="479" fill="#DA70D6" rx="11" ry="11" style="stroke: #005CC5; stroke-width: 1.0;"/><path d="M218.7334,480.063 Q216.8823,479.3574 216.2266,478.5813 Q215.5708,477.8052 215.5708,476.4937 Q215.5708,474.8086 216.6499,473.8457 Q217.729,472.8828 219.6133,472.8828 Q220.4683,472.8828 221.3232,473.0779 Q222.1782,473.2729 223.0166,473.6548 L223.0166,476.0454 Q222.228,475.4893 221.4146,475.1987 Q220.6011,474.9082 219.8042,474.9082 Q218.916,474.9082 218.4429,475.2651 Q217.9697,475.6221 217.9697,476.2861 Q217.9697,476.8008 218.3142,477.137 Q218.6587,477.4731 219.7544,477.8799 L220.8086,478.2783 Q222.3027,478.8262 223.0083,479.731 Q223.7139,480.6357 223.7139,482.0137 Q223.7139,483.8896 222.6057,484.8152 Q221.4976,485.7407 219.2563,485.7407 Q218.335,485.7407 217.4094,485.5208 Q216.4839,485.3008 215.6206,484.8691 L215.6206,482.3374 Q216.6001,483.0347 217.5173,483.375 Q218.4346,483.7153 219.3311,483.7153 Q220.2358,483.7153 220.7339,483.3044 Q221.2319,482.8936 221.2319,482.1548 Q221.2319,481.5986 220.8999,481.1794 Q220.5679,480.7603 219.937,480.5195 Z "/><text fill="#000000" font-family="SFMono-Regular,Consolas,Liberation Mono,Menlo,Courier,monospace" font-size="12" lengthAdjust="spacingAndGlyphs" textLength="42" x="238.5" y="483.5352">Iterator</text><line style="stroke: #005CC5; stroke-width: 0.5;" x1="183" x2="305" y1="495" y2="495"/><ellipse cx="193" cy="506.9775" fill="#84BE84" rx="3" ry="3" style="stroke: #038048; stroke-width: 1.0;"/><text fill="#000000" font-family="SFMono-Regular,Consolas,Liberation Mono,Menlo,Courier,monospace" font-size="11" lengthAdjust="spacingAndGlyphs" textLength="98" x="202" y="509.6348">Next() (Joint, bool)</text><!--class FnClosure--><rect fill="#F6F8FA" height="72.1758" id="FnClosure" style="stroke: #005CC5; stroke-width: 0.5;" width="277" x="305.5" y="106"/><ellipse cx="408.25" cy="125.1328" fill="#FFA500" rx="11" ry="11" style="stroke: #005CC5; stroke-width: 1.0;"/><path d="M409.5918,132.3828 L407.1431,132.3828 L407.1431,122.1313 L403.9971,122.1313 L403.9971,119.9897 L412.7378,119.9897 L412.7378,122.1313 L409.5918,122.1313 Z "/><text fill="#000000" font-family="SFMono-Regular,Consolas,Liberation Mono,Menlo,Courier,monospace" font-size="12" font-style="italic" lengthAdjust="spacingAndGlyphs" textLength="67" x="426.75" y="122.6016">«FuncType»</text><text fill="#000000" font-family="SFMono-Regular,Consolas,Liberation Mono,Menlo,Courier,monospace" font-size="12" lengthAdjust="spacingAndGlyphs" textLength="56" x="432.25" y="136.7344">FnClosure</text><line style="stroke: #005CC5; stroke-width: 0.5;" x1="306.5" x2="581.5" y1="144.2656" y2="144.2656"/><ellipse cx="316.5" cy="156.2432" fill="#84BE84" rx="3" ry="3" style="stroke: #038048; stroke-width: 1.0;"/><text fill="#000000" font-family="SFMono-Regular,Consolas,Liberation Mono,Menlo,Courier,monospace" font-size="11" lengthAdjust="spacingAndGlyphs" textLength="227" x="325.5" y="158.9004">StringClosure(FnClosureString) FnClosure</text><ellipse cx="316.5" cy="169.1982" fill="#84BE84" rx="3" ry="3" style="stroke: #038048; stroke-width: 1.0;"/><text fill="#000000" font-family="SFMono-Regular,Consolas,Liberation Mono,Menlo,Courier,monospace" font-size="11" lengthAdjust="spacingAndGlyphs" textLength="251" x="325.5" y="171.8555">StringSliceClosure(FnClosureString) FnClosure</text><!--class FnClosureString--><rect fill="#F6F8FA" height="38.2656" id="FnClosureString" style="stroke: #005CC5; stroke-width: 0.5;" width="120" x="468" y="8"/><ellipse cx="483" cy="27.1328" fill="#FFA500" rx="11" ry="11" style="stroke: #005CC5; stroke-width: 1.0;"/><path d="M484.3418,34.3828 L481.8931,34.3828 L481.8931,24.1313 L478.7471,24.1313 L478.7471,21.9897 L487.4878,21.9897 L487.4878,24.1313 L484.3418,24.1313 Z "/><text fill="#000000" font-family="SFMono-Regular,Consolas,Liberation Mono,Menlo,Courier,monospace" font-size="12" font-style="italic" lengthAdjust="spacingAndGlyphs" textLength="67" x="507.5" y="24.6016">«FuncType»</text><text fill="#000000" font-family="SFMono-Regular,Consolas,Liberation Mono,Menlo,Courier,monospace" font-size="12" lengthAdjust="spacingAndGlyphs" textLength="88" x="497" y="38.7344">FnClosureString</text><!--class FnClosureStringSlice--><rect fill="#F6F8FA" height="38.2656" id="FnClosureStringSlice" style="stroke: #005CC5; stroke-width: 0.5;" width="145" x="287.5" y="8"/><ellipse cx="302.5" cy="27.1328" fill="#FFA500" rx="11" ry="11" style="stroke: #005CC5; stroke-width: 1.0;"/><path d="M303.8418,34.3828 L301.3931,34.3828 L301.3931,24.1313 L298.2471,24.1313 L298.2471,21.9897 L306.9878,21.9897 L306.9878,24.1313 L303.8418,24.1313 Z "/><text fill="#000000" font-family="SFMono-Regular,Consolas,Liberation Mono,Menlo,Courier,monospace" font-size="12" font-style="italic" lengthAdjust="spacingAndGlyphs" textLength="67" x="339.5" y="24.6016">«FuncType»</text><text fill="#000000" font-family="SFMono-Regular,Consolas,Liberation Mono,Menlo,Courier,monospace" font-size="12" lengthAdjust="spacingAndGlyphs" textLength="113" x="316.5" y="38.7344">FnClosureStringSlice</text><!--link Attacher to Joint--><path d="M482,678.7276 C482,678.7276 482,772.1627 482,772.1627 " fill="none" id="Attacher-Joint" style="stroke: #005CC5; stroke-width: 0.5;"/><polygon fill="#005CC5" points="482,665.7276,478,671.7276,482,677.7276,486,671.7276,482,665.7276" style="stroke: #005CC5; stroke-width: 0.5;"/><!--link Resulter to namer--><path d="M620,678.7276 C620,678.7276 620,761.7522 620,761.7522 " fill="none" id="Resulter-namer" style="stroke: #005CC5; stroke-width: 0.5;"/><polygon fill="#005CC5" points="620,665.7276,616,671.7276,620,677.7276,624,671.7276,620,665.7276" style="stroke: #005CC5; stroke-width: 0.5;"/><!--link Executor to Resulter--><path d="M818,181.5957 C818,181.5957 818,433 818,433 C818,433 662,433 662,433 C662,433 662,556.8535 662,612.4908 " fill="none" id="Executor-Resulter" style="stroke: #005CC5; stroke-width: 0.5;"/><polygon fill="#005CC5" points="818,168.5957,814,174.5957,818,180.5957,822,174.5957,818,168.5957" style="stroke: #005CC5; stroke-width: 0.5;"/><!--link Executor to noder--><path d="M885.25,181.6032 C885.25,181.6032 885.25,902 885.25,902 C885.25,902 799.6272,902 739.2565,902 " fill="none" id="Executor-noder" style="stroke: #005CC5; stroke-width: 0.5;"/><polygon fill="#005CC5" points="885.25,168.6032,881.25,174.6032,885.25,180.6032,889.25,174.6032,885.25,168.6032" style="stroke: #005CC5; stroke-width: 0.5;"/><!--link namer to Joint--><path d="M558.2015,789 C558.2015,789 523.7638,789 523.7638,789 " fill="none" id="namer-Joint" style="stroke: #005CC5; stroke-width: 0.5;"/><polygon fill="#005CC5" points="510.7638,789,516.7638,793,522.7638,789,516.7638,785,510.7638,789" style="stroke: #005CC5; stroke-width: 0.5;"/><!--link Joint to noder--><path d="M482,817.7618 C482,817.7618 482,902 482,902 C482,902 564.1684,902 622.906,902 " fill="none" id="Joint-noder" style="stroke: #005CC5; stroke-width: 0.5;"/><polygon fill="#005CC5" points="482,804.7618,478,810.7618,482,816.7618,486,810.7618,482,804.7618" style="stroke: #005CC5; stroke-width: 0.5;"/><!--link GroupTask to task--><path d="M309.1265,321 C309.1265,321 318.75,321 318.75,321 C318.75,321 318.75,490 318.75,490 C318.75,490 367.6198,490 409.6172,490 " fill="none" id="GroupTask-task" style="stroke: #005CC5; stroke-width: 0.5;"/><polygon fill="#005CC5" points="296.1265,321,302.1265,325,308.1265,321,302.1265,317,296.1265,321" style="stroke: #005CC5; stroke-width: 0.5;"/><!--link GroupTask to Iterator--><path d="M239,408.0197 C239,408.0197 239,462.7273 239,462.7273 " fill="none" id="GroupTask-Iterator" style="stroke: #005CC5; stroke-width: 0.5;"/><polygon fill="#005CC5" points="239,403.0197,235,412.0197,239,408.0197,243,412.0197,239,403.0197" style="stroke: #005CC5; stroke-width: 0.5;"/><!--link FnTask to task--><path d="M469,403.2145 C469,403.2145 469,462.9166 469,462.9166 " fill="none" id="FnTask-task" style="stroke: #005CC5; stroke-width: 0.5;"/><polygon fill="#005CC5" points="469,390.2145,465,396.2145,469,402.2145,473,396.2145,469,390.2145" style="stroke: #005CC5; stroke-width: 0.5;"/><!--link FnClosure to FnTask--><path d="M406.5,178.1221 C406.5,178.1221 406.5,245.8442 406.5,245.8442 " fill="none" id="FnClosure-FnTask" style="stroke: #005CC5; stroke-width: 0.5;"/><polygon fill="#005CC5" points="406.5,250.8442,410.5,241.8442,406.5,245.8442,402.5,241.8442,406.5,250.8442" style="stroke: #005CC5; stroke-width: 0.5;"/><!--link CmdTask to task--><path d="M615,409.5198 C615,409.5198 615,481 615,481 C615,481 568.8047,481 528.3838,481 " fill="none" id="CmdTask-task" style="stroke: #005CC5; stroke-width: 0.5;"/><polygon fill="#005CC5" points="615,396.5198,611,402.5198,615,408.5198,619,402.5198,615,396.5198" style="stroke: #005CC5; stroke-width: 0.5;"/><!--link Executor to Piece--><path d="M934.1761,142 C934.1761,142 964.1698,142 964.1698,142 " fill="none" id="Executor-Piece" style="stroke: #005CC5; stroke-width: 0.5;"/><polygon fill="#005CC5" points="929.1761,142,938.1761,146,934.1761,142,938.1761,138,929.1761,142" style="stroke: #005CC5; stroke-width: 0.5;"/><!--link Resulter to Result--><path d="M690.8267,639 C690.8267,639 720.3384,639 720.3384,639 " fill="none" id="Resulter-Result" style="stroke: #005CC5; stroke-width: 0.5;"/><polygon fill="#005CC5" points="685.8267,639,694.8267,643,690.8267,639,694.8267,635,685.8267,639" style="stroke: #005CC5; stroke-width: 0.5;"/><!--link Iterator to Joint--><path d="M244,521.0786 C244,521.0786 244,789 244,789 C244,789 389.9909,789 453.2916,789 " fill="none" id="Iterator-Joint" style="stroke: #005CC5; stroke-width: 0.5;"/><polygon fill="#005CC5" points="244,516.0786,240,525.0786,244,521.0786,248,525.0786,244,516.0786" style="stroke: #005CC5; stroke-width: 0.5;"/><!--link FnClosureString to FnClosure--><path d="M525.25,46.2484 C525.25,46.2484 525.25,85.935 525.25,85.935 " fill="none" id="FnClosureString-FnClosure" style="stroke: #005CC5; stroke-width: 0.5;"/><polygon fill="none" points="532.2501,85.935,525.25,105.935,518.2501,85.9349,532.2501,85.935" style="stroke: #005CC5; stroke-width: 0.5;"/><!--link FnClosureStringSlice to FnClosure--><path d="M369,46.2484 C369,46.2484 369,85.935 369,85.935 " fill="none" id="FnClosureStringSlice-FnClosure" style="stroke: #005CC5; stroke-width: 0.5;"/><polygon fill="none" points="376.0001,85.935,369,105.935,362.0001,85.9349,376.0001,85.935" style="stroke: #005CC5; stroke-width: 0.5;"/><!--link task to Attacher--><path d="M469,536.2276 C469,536.2276 469,612.2522 469,612.2522 " fill="none" id="task-Attacher" style="stroke: #005CC5; stroke-width: 0.5; stroke-dasharray: 7.0,7.0;"/><polygon fill="none" points="462.0001,536.2276,469,516.2276,476.0001,536.2276,462.0001,536.2276" style="stroke: #005CC5; stroke-width: 0.5;"/><!--link task to Resulter--><path d="M548.2829,499 C548.2829,499 638.5,499 638.5,499 C638.5,499 638.5,571.7178 638.5,612.3375 " fill="none" id="task-Resulter" style="stroke: #005CC5; stroke-width: 0.5; stroke-dasharray: 7.0,7.0;"/><polygon fill="none" points="548.2829,505.9999,528.2829,499,548.2828,491.9999,548.2829,505.9999" style="stroke: #005CC5; stroke-width: 0.5;"/><!--link Executor to FnTask--><path d="M709.5,168.8447 C709.5,187.1172 709.5,208 709.5,208 C709.5,208 481.5,208 481.5,208 C481.5,208 481.5,230.8524 481.5,230.8524 " fill="none" id="Executor-FnTask" style="stroke: #005CC5; stroke-width: 0.5; stroke-dasharray: 7.0,7.0;"/><polygon fill="none" points="488.5001,230.8524,481.5,250.8524,474.5001,230.8523,488.5001,230.8524" style="stroke: #005CC5; stroke-width: 0.5;"/><!--link Executor to CmdTask--><path d="M752,168.7233 C752,168.7233 752,224.1304 752,224.1304 " fill="none" id="Executor-CmdTask" style="stroke: #005CC5; stroke-width: 0.5; stroke-dasharray: 7.0,7.0;"/><polygon fill="none" points="759.0001,224.1304,752,244.1304,745.0001,224.1304,759.0001,224.1304" style="stroke: #005CC5; stroke-width: 0.5;"/><!--
@startuml
skinparam defaultFontName SFMono-Regular,Consolas,Liberation Mono,Menlo,Courier,monospace
skinparam defaultFontSize 14px
skinparam linetype ortho
skinparam backgroundColor #fff
skinparam shadowing false
skinparam classBorderThickness .5
skinparam class {
	BackgroundColor #f6f8fa
	BorderColor #005cc5
	ArrowColor #005cc5
	ArrowThickness .5
}

interface namer {
    +Name() string
}
interface noder {
    +Node() dag.Node
}
interface Attacher {
    +Then(Attacher) Attacher
}
interface Joint {
}
interface Resulter {
    +Result() Result
}
interface Executor {
    +Exec(context.Context) (<-chan Piece, error)
}

Attacher *- - Joint
Resulter *- - namer
Executor *- - Resulter
Executor *- - noder
Joint *-left- namer
Joint *- - noder

class task << (S,orchid) >> {
    ~anchor dag.Node
}
class GroupTask << (S,orchid) >> {
    ~beginning task
    ~end task
    - - constructors - -
    +Group() GroupTask
    +ForEach(string, func(string) Attacher) GroupTask
    - - methods - -
    +Iter() (Iterator, error)
    +Beginning() Attacher
    +End() Attacher
}
class FnTask << (S,orchid) >> {
    - - embedded - -
    ~task
    - - constructors - -
    +Fn(string, FnClosure) FnTask
    +Transform(string, FnClosure) FnTask
    +Without(interface{}) FnTask
    +UnmarshalFile(interface{}) FnTask
}
class CmdTask << (S,orchid) >> {
    - - embedded - -
    ~task
    - - constructors - -
    +Cmd(string, ...string) CmdTask
    +Dir(CmdTask, string) CmdTask
    +Env(CmdTask, ...string) CmdTask
    +MakeDir(string) CmdTask
    +RemoveDir(string) CmdTask
}
class Result << (S, orchid) >> {
    ~taskName string
	~key      string
	~err      error
	~value    interface{}
    +Err() error
    +Value() interface{}
}
class Piece << (S, orchid) >> {
	+Text string
	+Err  error
}
class Iterator << (S, orchid) >> {
    +Next() (Joint, bool)
}
class FnClosure << (T, orange) FuncType >> {
    +StringClosure(FnClosureString) FnClosure
    +StringSliceClosure(FnClosureString) FnClosure
}
class FnClosureString << (T, orange) FuncType >>
class FnClosureStringSlice << (T, orange) FuncType >>

GroupTask *-down- task
GroupTask <-up- Iterator
FnTask *-down- task
FnTask <-down- FnClosure
CmdTask *-down- task
Executor <-left- Piece
Resulter <-left- Result
Iterator <- - Joint

FnClosure <|-up- FnClosureString
FnClosure <|-up- FnClosureStringSlice

task <|.. Attacher
task <|.. Resulter

FnTask <|.up. Executor
CmdTask <|.up. Executor


hide << FuncType >> members
hide interface fields
hide Joint members
hide task methods
hide Iterator fields
hide Piece methods

show FnClosure methods

@enduml

PlantUML version 1.2019.02(Fri Mar 01 22:20:40 CET 2019)
(GPL source distribution)
Java Runtime: Java(TM) SE Runtime Environment
JVM: Java HotSpot(TM) 64-Bit Server VM
Java Version: 1.8.0_172-b11
Operating System: Mac OS X
OS Version: 10.14.3
Default Encoding: UTF-8
Language: pl
Country: PL
--></g></svg>